HIERARCHY
ROOT hip
{
	OFFSET 0.000000 0.000000 0.000000 
	CHANNELS 6 Xposition Yposition Zposition Xrotation Zrotation Yrotation
	JOINT abdomen
	{
		OFFSET 0.000000 3.402643 0.000000 
		CHANNELS 3 Xrotation Zrotation Yrotation
		JOINT chest
		{
			OFFSET 0.000000 8.438565 -0.680529 
			CHANNELS 3 Xrotation Zrotation Yrotation
			JOINT neck
			{
				OFFSET 0.000000 10.207942 -0.272212 
				CHANNELS 3 Xrotation Zrotation Yrotation
				JOINT head
				{
					OFFSET 0.000000 3.130431 0.000000 
					CHANNELS 3 Xrotation Zrotation Yrotation
					End Site
					{
						OFFSET 0.000000 3.130435 0.000000 
					}
				}
			}
			JOINT lCollar
			{
				OFFSET 3.470700 6.669187 -0.816635 
				CHANNELS 3 Yrotation Zrotation Xrotation
				JOINT lShldr
				{
					OFFSET 3.198488 0.000000 0.000000 
					CHANNELS 3 Zrotation Yrotation Xrotation
					JOINT lForeArm
					{
						OFFSET 10.139888 0.000000 0.000000 
						CHANNELS 3 Yrotation Zrotation Xrotation
						JOINT lHand
						{
							OFFSET 8.370511 0.000000 0.000000 
							CHANNELS 3 Zrotation Yrotation Xrotation
							End Site
							{
								OFFSET 4.083176 0.000000 0.000000 
							}
						}
					}
				}
			}
			JOINT rCollar
			{
				OFFSET -3.470700 6.669187 -0.816635 
				CHANNELS 3 Yrotation Zrotation Xrotation
				JOINT rShldr
				{
					OFFSET -3.198488 0.000000 0.000000 
					CHANNELS 3 Zrotation Yrotation Xrotation
					JOINT rForeArm
					{
						OFFSET -10.139888 0.000000 0.000000 
						CHANNELS 3 Yrotation Zrotation Xrotation
						JOINT rHand
						{
							OFFSET -8.370511 0.000000 0.000000 
							CHANNELS 3 Zrotation Yrotation Xrotation
							End Site
							{
								OFFSET -4.083176 0.000000 0.000000 
							}
						}
					}
				}
			}
		}
	}
	JOINT lThigh
	{
		OFFSET 5.308129 -1.633274 1.361059 
		CHANNELS 3 Xrotation Zrotation Yrotation
		JOINT lShin
		{
			OFFSET -2.041588 -20.007561 0.000000 
			CHANNELS 3 Xrotation Zrotation Yrotation
			JOINT lFoot
			{
				OFFSET 0.000000 -19.190928 -1.224953 
				CHANNELS 3 Xrotation Yrotation Zrotation
				End Site
				{
					OFFSET 0.000000 -2.449906 4.627600 
				}
			}
		}
	}
	JOINT rThigh
	{
		OFFSET -5.308129 -1.633274 1.361059 
		CHANNELS 3 Xrotation Zrotation Yrotation
		JOINT rShin
		{
			OFFSET 2.041588 -20.007561 0.000000 
			CHANNELS 3 Xrotation Zrotation Yrotation
			JOINT rFoot
			{
				OFFSET 0.000000 -19.190928 -1.224953 
				CHANNELS 3 Xrotation Yrotation Zrotation
				End Site
				{
					OFFSET 0.000000 -2.449906 4.627600 
				}
			}
		}
	}
}
MOTION
Frames: 15
Frame Time: 0.033333
0.845317 35.502586 0.845317 1.416016 0.000000 -0.009766 24.836170 6.321255 -16.347977 -6.679512 0.284449 7.472779 -2.586033 -1.478560 -5.538484 10.524219 0.508720 -0.030344 -7.610239 -4.235142 5.620451 -48.938641 -39.007244 6.434330 -65.890205 -2.988185 1.600237 25.823107 10.449607 -60.850311 0.641854 4.821658 5.564329 84.029373 49.649456 1.988123 47.701553 2.664942 1.993597 77.985428 41.502926 114.943741 -53.112320 9.042020 7.561229 65.069862 1.204635 -4.563750 -3.412841 6.435277 -0.515353 -27.343122 -18.885712 -25.182522 88.518913 -2.899890 4.573627 -40.307800 -7.853870 3.782368 
2.061267 38.567432 2.061267 1.416016 0.000000 -0.009766 24.678568 6.273907 -16.359776 -8.270996 0.505744 7.376034 -23.654354 -3.886641 -8.790089 10.524219 0.508720 -0.030344 -11.002156 -2.407604 14.193410 -49.412205 -37.668625 4.858121 -54.748394 -2.804852 1.856908 25.823107 10.449607 -60.850311 0.134779 6.595867 13.747025 78.686333 53.844360 -4.705302 29.918619 2.249576 2.264465 78.619591 41.422619 116.384125 -49.477287 7.762465 7.885950 53.104313 0.388690 -4.270217 12.952454 6.730757 -1.088028 -24.800964 -17.659145 -26.025265 79.510864 -2.246217 4.654114 -30.357872 -7.369384 4.203022 
2.638700 40.144279 2.638700 1.416016 0.000000 -0.009766 24.549343 6.229700 -16.381462 -9.862402 0.729308 7.267012 -39.169857 -7.146315 -11.551476 10.524219 0.508720 -0.030344 -14.745690 0.105044 17.078001 -50.267586 -35.564354 3.676454 -44.126431 -2.589666 2.064633 25.823107 10.449607 -60.850311 0.086280 8.680542 15.828300 72.892632 56.579231 -11.338204 13.318150 1.804884 2.386319 79.090927 41.353771 117.451851 -48.295094 7.664382 8.543515 46.699574 -0.010619 -4.054320 22.567085 6.168746 -1.036613 -22.585121 -16.879292 -26.153185 75.193764 -1.943389 4.638962 -27.310297 -7.326553 4.782142 
1.766993 39.233715 1.766993 1.416016 0.000000 -0.009766 24.362526 6.182163 -16.392860 -11.463594 0.945012 7.182973 -38.928730 -7.582552 -15.535634 10.524219 0.508720 -0.030344 -18.656572 3.296854 5.040833 -52.079887 -31.628086 3.623351 -35.623001 -2.399678 2.190521 25.823107 10.449607 -60.850311 0.507945 7.176655 3.105653 69.603951 56.189938 -14.507921 1.407180 1.469021 2.394345 78.932899 41.375572 117.087677 -50.669743 9.588597 10.083493 47.908653 0.057968 -4.098526 23.384678 4.077262 0.109283 -20.683516 -16.611168 -25.446671 76.167641 -2.021253 4.649933 -32.088181 -7.997983 5.622015 
0.423344 36.857338 0.423344 1.416016 0.000000 -0.009766 24.045252 6.084348 -16.437021 -13.094180 1.152276 7.133920 -34.423561 -6.114703 -19.656467 10.524219 0.508720 -0.030344 -21.798843 6.360749 -9.390576 -55.293484 -24.750347 5.112886 -30.798819 -2.278309 2.256853 25.823107 10.449607 -60.850311 -1.322134 4.500333 -11.548271 71.149437 51.265785 -11.199210 1.328464 1.467582 2.398501 77.656387 41.529533 114.219666 -54.950146 12.734219 11.948351 53.133175 0.397632 -4.276663 19.682829 1.079068 1.746756 -18.846931 -16.541307 -24.341490 79.306114 -2.255949 4.630725 -40.082020 -9.172163 6.505446 
-0.642692 34.614223 -0.642692 1.416016 0.000000 -0.009766 23.512880 5.925609 -16.485809 -14.754210 1.360196 7.179897 -35.451061 -6.364410 -22.531176 10.524219 0.508720 -0.030344 -24.239626 8.364271 -14.791236 -59.035915 -16.373341 7.142839 -28.691101 -2.219561 2.283537 25.823107 10.449607 -60.850311 -4.300082 4.782940 -17.279139 73.670685 42.909348 -5.024041 1.257909 1.467322 2.391576 75.195297 41.705105 108.663780 -59.356899 15.815888 13.192652 59.721165 0.826327 -4.451871 13.869021 -1.660782 3.025982 -17.096972 -16.604975 -23.074282 83.585022 -2.548123 4.632648 -49.802460 -10.646890 7.189168 
-0.526094 32.959644 -0.526094 1.416016 0.000000 -0.009766 22.693552 5.687264 -16.573244 -16.463337 1.548797 7.347917 -34.446507 -6.118185 -24.754538 10.524219 0.508720 -0.030344 -26.167706 9.422650 -17.794706 -62.371456 -9.201291 8.841893 -27.204054 -2.184680 2.298111 25.823107 10.449607 -60.850311 -7.189550 5.526153 -20.432697 73.799820 34.216385 0.075803 8.244572 1.659376 2.402763 71.957657 41.654697 101.395798 -62.209526 17.300589 13.273429 65.021065 1.204680 -4.561930 8.330874 -2.748078 3.297919 -15.417354 -16.809412 -21.877754 88.079582 -2.870648 4.590813 -59.730251 -12.207587 7.665742 
-0.342869 31.438316 -0.342869 1.416016 0.000000 -0.009766 21.383192 5.295374 -16.696438 -18.543890 1.825084 7.662697 -30.693985 -5.402605 -26.418474 10.524219 0.508720 -0.030344 -27.903984 9.100364 -17.828213 -65.199112 -3.505212 10.284414 -26.276350 -2.159008 2.307887 25.823107 10.449607 -60.850311 -10.068375 6.350602 -20.347233 72.066658 25.987244 4.333005 17.810450 1.920048 2.364653 68.246078 41.217777 92.987717 -63.605202 16.753635 11.955397 69.336655 1.506617 -4.641860 2.800067 -1.675676 2.515730 -13.796720 -17.053770 -20.959270 91.815018 -3.134759 4.533452 -68.401276 -13.545427 7.938304 
0.018029 30.422256 0.018029 1.416016 0.000000 -0.009766 19.622295 4.768332 -16.848154 -21.094131 2.197236 8.075869 -24.480202 -4.349804 -27.650305 10.524219 0.508720 -0.030344 -29.503952 7.393465 -15.301203 -67.530174 1.091443 11.577519 -25.828339 -2.147411 2.316804 25.823107 10.449607 -60.850311 -13.070476 6.817090 -17.395029 69.145538 18.363062 8.147886 29.119587 2.226141 2.274931 64.437119 40.290012 84.102081 -64.500511 15.067851 9.785147 74.053505 1.848113 -4.652115 -3.789100 0.732727 1.257934 -12.215062 -17.278234 -20.570175 93.785889 -3.281149 4.480451 -74.299515 -14.377045 8.157713 
0.689853 29.994738 0.689853 1.416016 0.000000 -0.009766 17.597944 4.154654 -17.013721 -23.792435 2.622881 8.563766 -16.673195 -3.108763 -28.425976 10.524219 0.508720 -0.030344 -30.704176 4.583831 -11.149435 -69.286995 4.852891 12.948271 -25.788309 -2.150452 2.314834 25.823107 10.449607 -60.850311 -16.088476 6.655486 -12.600820 65.609421 11.400410 11.505639 41.350853 2.524801 2.109403 60.896725 38.939487 75.378578 -64.553925 12.790612 7.338380 78.204033 2.149637 -4.681202 -10.321221 3.841561 -0.024545 -10.927700 -17.498842 -20.961960 93.288063 -3.242075 4.501741 -76.335762 -14.328265 8.345968 
1.483834 30.066938 1.483834 1.416016 0.000000 -0.009766 15.529037 3.523088 -17.145733 -26.287264 3.022123 9.102633 -8.154218 -1.851853 -28.699604 10.524219 0.508720 -0.030344 -31.233622 1.078511 -6.227090 -70.331192 8.058592 14.439029 -26.097151 -2.154484 2.311368 25.823107 10.449607 -60.850311 -18.841124 5.733464 -6.964138 61.999130 5.103835 14.401862 53.646149 2.783431 1.876454 57.866344 37.268162 67.376717 -63.480270 10.476829 5.209435 80.709503 2.325611 -4.663124 -15.757474 6.909935 -1.006423 -9.901790 -17.768244 -22.076468 90.771133 -3.076308 4.541005 -75.152000 -13.436554 8.560462 
2.200075 30.705431 2.200075 1.416016 0.000000 -0.009766 13.638324 2.929264 -17.251003 -28.264854 3.309945 9.661016 0.226364 -0.719148 -28.454254 10.524219 0.508720 -0.030344 -30.937515 -2.539882 -1.286695 -70.645424 10.970507 16.040813 -26.685795 -2.171928 2.306133 25.823107 10.449607 -60.850311 -20.997587 4.271574 -1.412693 58.779045 -0.540576 16.790451 65.161934 2.972804 1.623520 55.494106 35.547123 60.520126 -61.089432 8.680758 3.878642 80.572914 2.315789 -4.667207 -19.111340 9.179848 -1.484626 -8.710969 -17.983917 -23.682816 87.055557 -2.815457 4.589059 -71.769562 -11.940054 9.046305 
2.716433 32.110153 2.716433 1.416016 0.000000 -0.009766 12.120502 2.462003 -17.323069 -29.400393 3.396969 10.235052 7.576246 0.222056 -27.714350 10.524219 0.508720 -0.030344 -29.882088 -5.677554 2.985553 -70.347000 13.747891 17.727766 -27.463165 -2.190562 2.293656 25.823107 10.449607 -60.850311 -22.309877 2.713490 3.194521 56.217285 -5.509109 18.602480 75.072098 3.095503 1.369034 53.827930 34.001236 55.217823 -57.519127 7.236758 3.078043 77.931007 2.118551 -4.697111 -20.727940 10.853210 -1.547400 -6.983123 -18.076847 -25.530344 82.970802 -2.522536 4.619064 -67.246330 -10.076541 9.842524 
3.143957 34.081211 3.143957 1.416016 0.000000 -0.009766 11.189772 2.169244 -17.369089 -29.369240 3.194571 10.814945 12.995975 0.988404 -26.474672 10.524219 0.508720 -0.030344 -28.282957 -7.721477 5.824264 -69.644806 16.445784 19.467445 -28.371387 -2.212062 2.284878 25.823107 10.449607 -60.850311 -22.611319 1.695722 6.132636 54.475487 -9.748416 19.631510 82.527405 3.153381 1.170477 52.831440 32.915768 51.771393 -53.149334 5.683285 2.289858 73.897446 1.838285 -4.654077 -21.756386 12.594781 -1.411862 -4.474392 -18.068573 -27.779316 78.312180 -2.181219 4.630942 -61.800079 -7.705694 10.901465 
3.626999 36.074463 3.626999 1.416016 0.000000 -0.009766 10.642441 1.995771 -17.382223 -28.417208 2.737933 11.430183 17.242228 1.628614 -24.730185 10.524219 0.508720 -0.030344 -26.243233 -8.956051 7.859414 -68.486664 18.650408 21.200930 -29.340023 -2.241095 2.273112 25.823107 10.449607 -60.850311 -21.893324 1.142197 8.156460 53.986435 -12.732612 19.209253 86.682373 3.174063 1.055419 52.484383 32.511852 50.535831 -48.221565 4.140026 1.444870 68.859375 1.487260 -4.618533 -22.342018 14.307117 -1.020597 -1.419465 -17.932518 -30.577517 72.689529 -1.781415 4.606995 -55.298801 -4.679736 11.983245 
